<svg width="225" height="548" viewBox="0 0 225 548" fill="none" xmlns="http://www.w3.org/2000/svg">
<path fill-rule="evenodd" clip-rule="evenodd" d="M71.7602 415.473C41.0317 442.402 10.4172 472.242 -29.9735 478.301C-71.2685 484.496 -112.759 470.15 -148.43 448.505C-183.489 427.231 -215.606 397.566 -227.64 358.357C-239.056 321.158 -219.175 283.686 -210.677 245.69C-202.296 208.219 -202.753 167.732 -178.366 138.055C-151.805 105.734 -113.27 84.8517 -72.1659 77.1401C-28.7127 68.9879 21.9812 65.9699 56.0583 94.075C89.3839 121.56 78.1377 174.546 94.4454 214.553C109.934 252.551 153.418 280.825 148.812 321.623C144.159 362.831 102.966 388.126 71.7602 415.473Z" fill="#D57B7A"/>
<path d="M77.471 188.999C77.36 188.386 77.239 187.924 77.1181 187.462C76.5714 181.978 74.0976 178.184 68.0923 179.755C62.549 181.206 59.2512 189.917 57.5775 194.649C56.0843 198.939 55.1144 204.475 56.4741 209.104C56.1844 211.204 56.0355 213.464 56.188 215.744C56.3522 220.143 60.9039 222.259 64.5083 220.377C66.5365 219.452 68.1328 218.195 69.4275 216.918C77.2192 213.497 77.9681 195.236 77.471 188.999Z" fill="#E2A456"/>
<path d="M129.569 186.075C129.09 177.266 120.793 176.871 115.885 182.45C110.968 188.179 103.323 198.571 105.358 206.725C106.678 211.957 110.827 213.29 114.834 212.192C117.425 211.908 119.935 210.561 121.882 208.57C127.101 202.861 129.986 193.517 129.569 186.075Z" fill="#E2A456"/>
<path d="M90.9781 236.649C90.887 235.735 90.5044 234.65 89.9513 233.857C88.4608 228.916 82.9356 227.796 78.0761 230.351C69.6023 234.938 54.6225 255.591 67.9368 262.521C74.2271 265.81 80.9939 261.868 85.0982 256.993C89.8448 251.555 92.0084 243.98 90.9781 236.649Z" fill="#E2A456"/>
<path d="M118.82 273.439C119.532 271.821 120.103 270.043 120.373 268.245C120.543 267.953 120.714 267.662 120.734 267.361C121.315 265.432 121.243 264.216 120.77 262.218C120.78 262.067 120.629 262.057 120.639 261.907C120.659 261.605 120.689 261.153 120.708 260.852C120.736 258.13 118.746 256.183 116.355 255.723C114.456 254.69 112.025 254.832 110.239 256.682C106.184 260.803 95.8103 275.858 98.7696 283.77C99.3642 286.231 101.686 287.746 103.936 288.045C104.086 288.055 104.087 288.055 104.237 288.065C112.124 290.098 116.607 281.768 118.82 273.439Z" fill="#E2A456"/>
<path d="M32.9048 265.964C32.6828 264.738 31.8383 263.775 30.8233 263.103C30.7024 262.641 30.5814 262.179 30.6013 261.877C30.2584 260.19 29.1225 259.056 27.7962 258.515C26.8209 257.24 25.5145 256.397 23.5557 256.268C18.4428 255.78 15.193 261.468 13.1982 266.481C12.0045 268.521 11.2329 271.043 11.0741 273.454C10.134 278.537 10.8315 284.031 15.635 286.92C20.4286 289.959 25.3989 288.017 28.2383 283.967C29.3525 283.132 30.4668 282.298 31.3095 280.991C34.6406 276.368 33.9333 271.025 32.9048 265.964Z" fill="#E2A456"/>
<path d="M73.6152 304.964C73.3419 302.222 72.4559 299.591 70.4655 297.644C64.6452 291.813 55.7609 298.037 51.3652 302.742C46.9695 307.446 42.054 315.445 46.3279 321.78C47.7056 323.838 49.6048 324.871 51.5536 325.15C52.1166 325.793 52.8304 326.445 53.8553 326.967C60.5878 330.437 67.7533 322.737 70.6721 317.481C71.3641 316.165 72.0759 314.547 72.6371 312.92C75.167 311.27 76.46 307.724 73.6152 304.964Z" fill="#E2A456"/>
<path d="M18.0491 342.162C20.0341 337.299 20.5168 325.376 15.1007 322.598C14.1235 319.053 10.1248 317.73 7.14292 319.35C-0.387149 323.393 -4.81893 333.24 -2.03016 341.444C-1.65754 342.68 -0.973579 343.784 -0.279764 344.738C0.213751 346.435 1.51015 347.428 2.9871 347.979C4.44421 348.832 6.06198 349.544 7.87999 349.512C12.7015 349.83 16.1039 346.422 18.0491 342.162Z" fill="#E2A456"/>
<path d="M60.6001 371.598C61.9643 369.267 62.7358 366.745 62.4227 364.606L62.4326 364.455C63.1129 361.02 62.116 357.776 59.975 355.819C59.1603 354.404 57.7132 353.4 55.3123 353.091C48.2803 351.871 41.7689 361.127 39.1415 366.553C37.5771 369.628 36.304 372.873 37.8937 376.307C39.4834 379.741 43.1907 380.893 46.6048 379.605C49.6282 379.653 53.0223 378.666 55.231 377.298C55.3916 377.157 55.5422 377.167 55.7028 377.026C57.7608 375.648 59.3866 373.94 60.6001 371.598Z" fill="#E2A456"/>
<path d="M159.351 225.566C159.361 225.415 159.522 225.274 159.532 225.124C161.255 219.638 159.933 212.136 154.035 209.78C147.846 207.254 141.583 212.743 137.669 217.025C133.755 221.307 129.742 227.096 132.227 233.01C133.012 234.878 134.279 236.323 135.867 237.487C138.21 240.97 143.644 241.177 147.711 239.175C147.871 239.034 148.022 239.044 148.183 238.903C153.756 237.001 161.044 232.033 159.351 225.566Z" fill="#E2A456"/>
<path d="M108.809 328.922C108.849 328.319 109.04 327.727 109.079 327.124C109.248 324.562 107.117 322.455 104.736 321.844C104.012 321.342 103.289 320.841 102.414 320.329C91.1004 315.195 74.5326 334.684 82.6563 344.602C84.8983 347.322 87.8423 348.575 90.8657 348.623C92.182 349.315 93.5182 349.706 95.3363 349.674C104.849 349.998 110.635 337.97 108.809 328.922Z" fill="#E2A456"/>
<path d="M21.7002 399.301C22.5726 397.543 23.013 395.453 23.1421 393.495C23.2098 390.17 21.9412 386.454 19.1975 384.458C17.5564 379.507 13.5857 375.462 7.6201 376.431C-0.324087 377.573 -6.15346 385.663 -5.60494 393.417C-5.13761 400.106 -0.0508298 405.586 6.35864 407.068C6.79081 407.399 7.22298 407.73 7.80582 408.071C11.745 410.298 16.5051 409.249 19.4555 405.812C20.7899 403.932 21.5414 401.712 21.7002 399.301Z" fill="#E2A456"/>
</svg>
