<svg width="246" height="481" viewBox="0 0 246 481" fill="none" xmlns="http://www.w3.org/2000/svg">
<path fill-rule="evenodd" clip-rule="evenodd" d="M433.102 232.546C440.718 272.125 494.213 299.845 484.939 339.069C475.822 377.628 427.639 392.349 391.485 408.561C362.085 421.744 329.769 418.323 297.882 422.947C264.968 427.72 228.975 454.209 201.027 436.18C172.293 417.645 190.828 367.765 170.138 340.541C145.375 307.96 90.6088 305.92 73.701 268.652C55.1243 227.707 57.1381 176.596 77.5898 136.554C98.7986 95.0299 139.666 62.9277 184.785 51.1645C227.852 39.9361 269.66 66.8412 313.399 75.0748C356.061 83.1057 412.467 64.4098 438.738 98.9697C466.265 135.181 424.507 187.879 433.102 232.546Z" fill="#F4DE3A"/>
<path d="M77.2562 371.449C78.5893 354.398 98.4172 352.88 98.4172 352.88L83.538 351.471C83.538 351.471 47.4685 375.995 55.2644 357.655C63.0602 339.315 102.595 350.538 102.595 350.538C102.595 350.538 65.7315 336.934 77.6034 332.784C89.4753 328.633 108.997 350.909 108.997 350.909C121.312 351.635 133.316 353.014 144.722 354.911C131.096 347.243 101.16 328.896 115.38 328.395C130.868 327.828 152.512 356.217 152.512 356.217C164.589 358.335 175.956 360.875 186.397 363.578C171.208 351.65 132.68 320.197 150.021 321.431C168.85 322.794 189.41 352.717 198.051 366.716C200.919 367.507 203.758 368.349 206.582 369.215C225.61 375.014 239.442 380.539 245.207 382.936C241.327 372.998 236.856 363.3 231.818 353.895C203.618 350.912 171.526 330.655 189.971 326.177C202.07 323.188 213.864 329.998 221.725 336.365C213.013 322.381 203.427 308.962 193.022 296.187C178.124 294.235 132.772 287.501 145.373 276.158C155.366 267.199 172.953 277.22 183.547 284.899C173.151 272.846 162.913 262.247 153.745 253.363C147.319 252.977 103.54 249.911 115.209 240.756C122.495 234.988 133.716 238.474 142.023 242.339C128.308 229.7 118.954 222.637 118.954 222.637C118.954 222.637 67.875 212.463 77.187 198.523C86.4989 184.582 118.689 216.3 118.689 216.3C128.528 223.676 137.73 231.117 146.379 238.537C134.078 219.533 110.964 180.388 129.786 184.239C151.358 188.682 154.163 234.154 154.526 245.734C167.753 257.595 180.309 270.183 192.136 283.441C185.158 261.724 163.998 191.092 187.701 203.015C215.589 217.021 200.066 292.74 200.066 292.74C212.726 307.771 224.307 323.679 234.721 340.344C230.117 320.563 219.583 266.306 243.536 271.291C272.834 277.268 242.853 354.016 242.853 354.016C260.881 386.135 266.447 407.534 266.447 407.534C258.826 412.211 251.992 402.281 251.992 402.281C251.148 399.366 250.239 396.448 249.277 393.565C229.413 383.213 208.477 375.062 186.843 369.255C182.844 373.13 143.814 410.442 139.939 389.685C135.907 367.875 174.7 366.101 174.843 366.084C166.874 364.109 159.031 362.374 151.435 360.848C141.011 366.233 98.4954 387.469 105.894 370.163C110.531 359.308 121.509 357.168 130.368 357.429L107.073 353.954C107.073 353.954 75.9088 388.525 77.2562 371.449Z" fill="#F58548"/>
</svg>
