<svg width="687" height="712" viewBox="0 0 687 712" fill="none" xmlns="http://www.w3.org/2000/svg">
<mask id="mask0_251_11" style="mask-type:alpha" maskUnits="userSpaceOnUse" x="204" y="121" width="279" height="470">
<rect x="204" y="121" width="279" height="470" fill="#D9D9D9"/>
</mask>
<g mask="url(#mask0_251_11)">
<path fill-rule="evenodd" clip-rule="evenodd" d="M666.102 346.546C673.718 386.125 727.213 413.845 717.939 453.069C708.822 491.628 660.639 506.349 624.485 522.561C595.085 535.744 562.769 532.323 530.882 536.947C497.968 541.72 461.975 568.209 434.027 550.18C405.293 531.645 423.828 481.765 403.138 454.541C378.375 421.96 323.609 419.92 306.701 382.652C288.124 341.707 290.138 290.596 310.59 250.554C331.799 209.03 372.666 176.928 417.785 165.165C460.852 153.936 502.66 180.841 546.399 189.075C589.061 197.106 645.467 178.41 671.738 212.97C699.265 249.181 657.507 301.879 666.102 346.546Z" fill="#F4DE3A"/>
<path d="M310.256 485.449C311.589 468.398 331.417 466.88 331.417 466.88L316.538 465.471C316.538 465.471 280.469 489.995 288.264 471.655C296.06 453.315 335.595 464.538 335.595 464.538C335.595 464.538 298.732 450.934 310.603 446.784C322.475 442.633 341.997 464.909 341.997 464.909C354.312 465.635 366.316 467.014 377.722 468.911C364.096 461.243 334.16 442.896 348.38 442.395C363.868 441.828 385.512 470.217 385.512 470.217C397.589 472.335 408.956 474.875 419.397 477.578C404.208 465.65 365.68 434.197 383.021 435.431C401.85 436.794 422.41 466.717 431.051 480.716C433.919 481.507 436.758 482.349 439.582 483.215C458.61 489.014 472.442 494.539 478.207 496.936C474.327 486.998 469.856 477.3 464.818 467.895C436.618 464.912 404.526 444.655 422.971 440.177C435.07 437.188 446.864 443.998 454.725 450.365C446.013 436.381 436.427 422.962 426.022 410.187C411.124 408.235 365.772 401.501 378.373 390.158C388.366 381.199 405.953 391.22 416.547 398.899C406.151 386.846 395.913 376.247 386.745 367.363C380.319 366.977 336.54 363.911 348.209 354.756C355.495 348.988 366.716 352.474 375.023 356.339C361.308 343.7 351.954 336.637 351.954 336.637C351.954 336.637 300.875 326.463 310.187 312.523C319.499 298.582 351.689 330.3 351.689 330.3C361.528 337.676 370.73 345.117 379.379 352.537C367.078 333.533 343.964 294.388 362.786 298.239C384.358 302.682 387.163 348.154 387.526 359.734C400.753 371.595 413.309 384.183 425.136 397.441C418.158 375.724 396.998 305.092 420.701 317.015C448.589 331.021 433.066 406.74 433.066 406.74C445.726 421.771 457.307 437.679 467.721 454.344C463.117 434.563 452.583 380.306 476.536 385.291C505.834 391.268 475.853 468.016 475.853 468.016C493.881 500.135 499.447 521.534 499.447 521.534C491.826 526.211 484.992 516.281 484.992 516.281C484.148 513.366 483.239 510.448 482.277 507.565C462.413 497.213 441.477 489.062 419.843 483.255C415.844 487.13 376.814 524.442 372.939 503.685C368.907 481.875 407.7 480.101 407.843 480.084C399.874 478.109 392.031 476.374 384.435 474.848C374.011 480.233 331.495 501.469 338.894 484.163C343.531 473.308 354.509 471.168 363.368 471.429L340.073 467.954C340.073 467.954 308.909 502.525 310.256 485.449Z" fill="#F58548"/>
</g>
</svg>
