<svg width="86" height="193" viewBox="0 0 86 193" fill="none" xmlns="http://www.w3.org/2000/svg">
<path fill-rule="evenodd" clip-rule="evenodd" d="M0.425228 63.5168C2.45224 39.8707 24.9084 22.237 45.7448 10.895C64.5286 0.670482 88.7933 -4.37999 108.032 4.94315C125.975 13.6387 119.623 46.4703 137.477 55.3489C159.849 66.4745 191.43 39.9187 210.598 55.9496C227.813 70.3468 227.396 101.791 216.458 121.403C205.662 140.76 176.275 137.055 158.207 149.883C142.045 161.358 136.971 186.61 117.763 191.478C97.8295 196.531 75.7069 188.003 59.9534 174.787C45.036 162.272 45.3231 140.171 36.1352 122.997C24.9523 102.094 -1.60025 87.1449 0.425228 63.5168Z" fill="#FFC0A7"/>
</svg>
