<svg width="216" height="501" viewBox="0 0 216 501" fill="none" xmlns="http://www.w3.org/2000/svg">
<path fill-rule="evenodd" clip-rule="evenodd" d="M40.9463 76.7592C83.9406 80.1589 108.351 140.912 108.547 183.984C108.741 226.617 47.1482 247.722 41.9155 290.023C36.9501 330.163 96.5296 364.67 81.5498 402.227C67.9408 436.346 16.2729 453.422 -18.8132 442.279C-57.8024 429.896 -53.9182 361.535 -92.1782 347.05C-122.814 335.451 -152.586 393.953 -182.387 380.348C-207.15 369.043 -192.869 328.303 -192.765 301.128C-192.679 278.701 -185.849 258.198 -181.832 236.141C-176.638 207.617 -189.83 168.539 -165.692 152.469C-141.289 136.222 -108.523 179.088 -80.982 168.998C-32.1118 151.092 -10.9875 72.6527 40.9463 76.7592Z" fill="#F4DE3A"/>
<path d="M28.3201 266.141C33.532 256.546 38.9224 246.424 44.5374 236.436C46.5891 232.703 48.9806 229.167 51.6822 225.873C57.957 218.42 57.1175 210.379 54.6779 201.853C52.9883 196.371 50.6524 191.108 47.7194 186.175C44.0621 179.625 40.2117 173.172 38.8878 165.688C37.9378 160.561 37.928 155.306 38.8591 150.177C40.5231 140.913 44.8093 132.76 49.1858 124.686C53.5623 116.613 58.34 108.777 63.2902 101.062C65.847 97.2643 68.7159 93.6859 71.8668 90.3634C73.0034 89.2211 74.5098 88.5192 76.1172 88.3831C79.3006 88.2334 81.2819 92.292 79.8007 95.4599C77.7575 99.6789 75.9735 104.019 74.4589 108.455C73.1599 113.086 72.3057 117.83 71.9081 122.624C71.1734 130.225 73.1041 137.389 75.7403 144.557C78.3028 151.887 79.6827 159.577 79.8284 167.338C80.3011 176.005 79.1794 184.684 76.5191 192.945C75.0857 197.184 73.0531 201.3 71.7363 205.867C74.6534 202.824 77.7125 199.874 80.4966 196.703C86.7007 189.583 89.303 180.496 94.0706 172.49C99.2414 163.813 104.059 154.855 109.812 146.575C115.99 137.599 124.072 130.092 133.485 124.586C141.629 119.987 150.179 116.144 159.028 113.105C160.446 112.513 161.99 112.288 163.518 112.452C164.175 112.613 164.789 112.915 165.318 113.335C165.848 113.756 166.28 114.286 166.585 114.889C166.789 115.482 166.863 116.113 166.801 116.737C166.74 117.361 166.545 117.965 166.229 118.507C164.151 121.125 161.934 123.629 159.588 126.01C155.126 130.793 152.56 136.622 150.2 142.581C147.676 148.948 145.093 155.28 142.45 161.578C140.925 165.746 139.071 169.788 136.906 173.664C132.45 181.068 126.546 187.499 119.545 192.573C111.359 198.344 101.947 200.984 92.6514 203.747C83.7234 206.387 76.8123 211.98 69.3856 217.138C70.0287 217.161 70.6719 217.096 71.2972 216.945C83.0213 212.837 95.5726 211.638 107.869 213.451C114.679 214.273 121.518 214.917 128.219 216.285C137.139 218.119 146.01 220.273 154.743 222.873C161.72 224.946 168.457 227.847 175.263 230.488C177.047 231.188 178.681 232.517 178.35 234.657C177.868 235.85 177.124 236.919 176.172 237.786C176.015 237.938 175.83 238.056 175.627 238.136C175.423 238.215 175.206 238.254 174.988 238.249C165.472 238.224 157.119 242.465 148.497 245.558C143.668 247.216 138.678 248.368 133.609 248.995C127.694 249.759 121.731 250.091 115.767 249.989C110.988 249.665 106.229 249.102 101.506 248.303C92.6911 247.259 85.7084 242.362 78.5031 237.739C73.855 234.748 68.8247 232.212 63.9344 229.639C62.6412 228.976 61.1523 228.801 59.7411 229.146C58.3298 229.491 57.0907 230.333 56.2519 231.517C51.4672 239.239 46.5438 246.925 42.2646 254.913C35.9738 266.521 30.2361 278.425 20.9255 288.184C17.0045 292.199 12.2945 295.362 7.09091 297.474C5.28756 298.235 3.41738 298.829 1.60132 299.568C0.749124 300.041 -0.254733 300.165 -1.19735 299.913C-2.13995 299.66 -2.94753 299.051 -3.44868 298.215C-3.64736 297.744 -3.74686 297.237 -3.74143 296.726C-3.73599 296.215 -3.62577 295.711 -3.41712 295.245C-3.20848 294.778 -2.90611 294.36 -2.52873 294.015C-2.15135 293.671 -1.70702 293.407 -1.22329 293.241C1.46206 292.104 4.19972 290.981 6.88607 290.048C10.4591 288.722 11.5493 286.526 9.94128 283.088C7.21844 277.215 3.86022 271.562 1.63741 265.49C-1.22544 258.186 -3.32045 250.606 -4.61436 242.872C-6.06317 232.383 -5.72176 221.669 -6.7991 211.113C-7.56497 204.262 -8.8565 197.479 -10.6623 190.825C-12.2925 184.484 -14.6448 178.339 -16.8085 172.115C-17.6652 169.621 -18.7848 167.204 -19.7201 164.726C-20.0681 163.986 -20.1174 163.142 -19.858 162.368C-19.5987 161.594 -19.0503 160.949 -18.3271 160.569C-17.5994 160.15 -16.7558 159.976 -15.921 160.072C-15.0861 160.169 -14.3045 160.531 -13.6913 161.105C-9.49022 164.61 -5.83342 168.719 -2.84096 173.296C0.597618 178.302 4.28298 183.151 7.85353 188.081C14.0164 196.104 19.0276 204.946 22.7425 214.35C26.1261 222.852 28.1135 231.842 28.6281 240.973C28.8056 249.543 28.4222 258.055 28.3201 266.141Z" fill="#243F33"/>
</svg>
