<svg width="199" height="470" viewBox="0 0 199 470" fill="none" xmlns="http://www.w3.org/2000/svg">
<path d="M169.523 167.538C202.35 212.597 155.547 232.735 135.032 270.533C112.529 309.407 115.313 337.776 141.771 374.188C164.319 406.152 202.091 419.72 237.983 401.715C269.846 385.709 296.422 365.943 328.043 354.101C394.361 356.152 472.54 356.648 463.499 268.784C457.878 218.927 428.697 199.02 386.941 180.938C345.579 161.214 346.275 126.884 331.072 86.547C307.216 14.5229 181.34 -5.3717 145.693 69.6909C124.406 110.545 145.431 135.161 169.523 167.538Z" fill="#D57B7A"/>
<path d="M169.942 99.1427C170.328 99.2934 170.576 99.3184 170.686 99.4603C171.97 101.071 173.266 102.637 174.452 104.369C180.495 112.798 184.25 122.276 187.349 132.088C189.11 137.608 189.922 143.387 189.752 149.178C189.596 155.372 189.596 161.578 189.183 167.78C188.43 179.096 185.186 189.686 180.386 199.923C178.916 203.002 177.238 205.977 175.653 209.001C172.348 215.268 167.93 220.721 163.307 226.031C161.282 228.357 161.346 228.339 163.323 230.745C172.2 241.385 182.009 251.213 192.631 260.112C198.459 265.072 204.719 269.5 211.336 273.344C212.589 274.076 213.816 274.843 215.009 275.666C215.885 276.261 216.591 277.048 216.312 278.245C216.079 279.247 215.063 279.75 213.492 279.518C212.267 279.327 211.059 279.031 209.884 278.634C207.344 277.744 204.924 276.547 202.675 275.069C197.467 271.691 192.503 267.952 187.818 263.88C176.542 254.326 166.157 243.766 156.793 232.331C155.754 231.064 154.996 229.299 153.529 228.681C152.062 228.063 150.339 229.086 148.721 229.338C145.337 229.822 141.897 229.771 138.528 229.185C132.698 228.324 126.954 226.957 121.361 225.098C107.922 220.389 96.3387 212.882 87.2394 201.775C83.6813 197.213 79.8221 192.894 75.6879 188.847C69.5038 182.865 62.1625 178.211 54.1147 175.171C53.5524 174.935 53.0071 174.661 52.4831 174.349C52.4198 174.32 52.3982 174.202 52.3497 174.118C52.5471 173.879 52.7959 173.687 53.0776 173.556C53.3593 173.426 53.6666 173.361 53.977 173.365C60.0027 172.49 66.0082 171.58 72.1568 171.483C78.2822 171.469 84.3463 172.706 89.9772 175.119C100.072 179.132 109.716 184.2 118.748 190.238C119.941 191.061 121.118 191.903 122.331 192.695C126.663 195.518 130.701 198.767 134.387 202.394C135.164 203.158 135.827 204.129 137.021 204.484C137.296 203.812 136.791 203.488 136.577 203.117C130.489 192.774 125.228 181.965 120.844 170.792C120.426 169.745 120.226 168.461 119.3 167.811C118.226 167.05 117.136 168.071 116.108 168.375C107.71 170.862 99.7491 169.71 92.0904 165.705C89.5286 164.354 87.0634 162.827 84.7127 161.136C82.208 159.297 79.9833 157.105 78.1088 154.627C70.8101 145.176 65.72 134.212 63.2119 122.538C61.6206 115.046 60.6592 107.435 60.3378 99.7835C60.2885 98.958 60.3064 98.13 60.3916 97.3074C61.1469 90.18 62.5083 83.1972 65.3165 76.5551C65.5446 76.0128 65.6127 75.3388 66.3443 75.1031C66.7209 75.4608 66.9629 75.9373 67.0299 76.4524C69.7772 85.5592 72.9912 94.5186 76.6589 103.295C80.0574 111.408 84.0751 119.247 88.6762 126.744C92.0122 132.103 95.8981 137.101 100.271 141.654C104.366 145.888 108.534 150.052 112.899 154.008C113.52 154.583 114.14 155.092 114.762 155.62C115.429 155.03 115.076 154.45 114.905 153.895C113.004 147.452 110.932 141.052 109.235 134.556C106.414 123.433 104.178 112.171 102.536 100.814C101.383 93.0806 100.398 85.2499 99.2071 77.4823C98.0867 69.3925 96.3319 61.4033 93.9586 53.5885C93.2504 51.3168 92.3862 49.0966 91.3723 46.9438C89.3992 42.8475 87.496 38.7108 85.5829 34.5891C85.5486 34.503 85.5361 34.4097 85.5463 34.3175C85.5566 34.2254 85.5893 34.137 85.6417 34.0605C85.7085 33.9933 85.7903 33.9431 85.8804 33.9138C85.9705 33.8845 86.0666 33.8768 86.1602 33.8918C87.0207 34.2349 87.8822 34.5961 88.714 35.0025C98.4213 39.6636 106.803 46.182 114.381 53.7804C118.936 58.2961 123.134 63.1578 126.938 68.322C131.453 74.3912 135.086 81.0696 137.728 88.158C138.201 89.5249 138.551 90.9314 138.773 92.3606C140.319 101.459 140.185 110.762 138.378 119.811C135.969 131.895 132.231 143.674 127.232 154.934C126.525 156.537 125.606 158.048 124.746 159.58C124.379 160.14 124.156 160.782 124.098 161.449C124.04 162.116 124.149 162.787 124.415 163.402C125.667 166.347 126.743 169.374 127.995 172.319C132.237 182.66 137.261 192.663 143.023 202.242C145.233 205.828 147.574 209.348 149.862 212.908C150.562 212.504 150.311 211.94 150.225 211.485C149.036 204.634 149.286 197.611 150.962 190.864C152.268 185.113 153.896 179.441 155.838 173.873C158.95 164.993 162.083 156.119 165.077 147.196C169.911 132.767 171.307 117.925 170.104 102.801C170.025 101.774 169.926 100.748 169.85 99.7096C169.771 99.4934 169.845 99.3948 169.942 99.1427Z" fill="#201402"/>
</svg>
