<svg width="222" height="328" viewBox="0 0 222 328" fill="none" xmlns="http://www.w3.org/2000/svg">
<path fill-rule="evenodd" clip-rule="evenodd" d="M-79.7638 160.924C-64.4846 112.376 -65.0237 40.7715 -14.1461 39.3999C36.1221 38.0448 34.5098 111.18 54.5437 157.303C81.3817 219.092 158.245 281.363 112.385 330.708C57.7404 389.504 -45.2708 382.572 -105.422 329.423C-152.491 287.832 -98.6199 220.839 -79.7638 160.924Z" fill="#D57B7A"/>
<path d="M2.96763 83.4844C19.9875 81.8002 24.9672 101.053 24.9672 101.053L23.7395 86.1574C23.7395 86.1574 -6.7423 54.9591 12.6824 59.4106C32.107 63.8621 28.0071 104.754 28.0071 104.754C28.0071 104.754 34.9203 66.0734 41.0927 77.0312C47.2651 87.9889 28.7666 111.122 28.7666 111.122C30.2158 123.372 30.9684 135.432 31.1051 146.994C36.2589 132.232 49.0598 99.5376 52.052 113.448C55.3317 128.596 31.1884 154.892 31.1884 154.892C31.2256 167.153 30.7229 178.789 29.8963 189.543C38.9695 172.494 63.1626 129.039 64.9949 146.327C66.9627 165.102 41.1181 190.6 28.8555 201.567C28.5805 204.53 28.2513 207.472 27.8951 210.405C25.5302 230.156 22.5213 244.744 21.1745 250.84C30.2769 245.274 39.0381 239.168 47.4111 232.556C45.3914 204.27 59.6934 169.118 67.3437 186.489C72.4123 197.874 67.7815 210.682 62.8949 219.539C75.1302 208.506 86.6558 196.71 97.4028 184.222C96.7063 169.213 95.3655 123.384 108.747 133.794C119.323 142.058 112.548 161.132 106.851 172.911C116.889 160.559 125.524 148.617 132.658 138.031C131.909 131.636 127.234 88.0002 138.297 97.879C145.255 104.038 143.796 115.696 141.45 124.554C151.483 108.831 156.792 98.3814 156.792 98.3814C156.792 98.3814 157.831 46.3094 173.191 53.0266C188.551 59.7438 162.984 97.0073 162.984 97.0073C157.452 107.989 151.744 118.356 145.959 128.174C162.506 112.725 196.98 83.0907 196.496 102.297C195.914 124.314 151.641 135.067 140.305 137.459C130.954 152.564 120.768 167.137 109.795 181.11C129.948 170.424 195.762 137.18 188.19 162.61C179.303 192.525 102.034 190.551 102.034 190.551C89.4622 205.655 75.8373 219.851 61.2616 233.033C79.9255 225.023 131.487 205.119 130.789 229.575C130.054 259.467 49.2317 243.441 49.2317 243.441C20.7806 266.833 0.692146 276.072 0.692146 276.072C-5.25103 269.392 3.32369 260.919 3.32369 260.919C6.04442 259.576 8.75767 258.168 11.4265 256.715C18.1263 235.34 22.4719 213.298 24.3861 190.98C19.8686 187.724 -23.7212 155.859 -3.96899 148.396C16.7936 140.594 25.3571 178.472 25.3991 178.61C25.9426 170.417 26.2723 162.392 26.4402 154.645C19.3065 145.33 -9.06994 107.208 9.26703 111.45C20.7673 114.108 24.8035 124.538 26.1036 133.306L25.4309 109.763C25.4309 109.763 -14.0793 85.1588 2.96763 83.4844Z" fill="#201402"/>
</svg>
