<svg width="363" height="398" viewBox="0 0 363 398" fill="none" xmlns="http://www.w3.org/2000/svg">
<path fill-rule="evenodd" clip-rule="evenodd" d="M61.2362 160.924C76.5154 112.376 75.9763 40.7715 126.854 39.3999C177.122 38.0448 175.51 111.18 195.544 157.303C222.382 219.092 299.245 281.363 253.385 330.708C198.74 389.504 95.7292 382.572 35.5784 329.423C-11.4908 287.832 42.3801 220.839 61.2362 160.924Z" fill="#D57B7A"/>
<path d="M143.968 83.4844C160.988 81.8002 165.967 101.053 165.967 101.053L164.74 86.1574C164.74 86.1574 134.258 54.9591 153.682 59.4106C173.107 63.8621 169.007 104.754 169.007 104.754C169.007 104.754 175.92 66.0734 182.093 77.0312C188.265 87.9889 169.767 111.122 169.767 111.122C171.216 123.372 171.968 135.432 172.105 146.994C177.259 132.232 190.06 99.5376 193.052 113.448C196.332 128.596 172.188 154.892 172.188 154.892C172.226 167.153 171.723 178.789 170.896 189.543C179.969 172.494 204.163 129.039 205.995 146.327C207.963 165.102 182.118 190.6 169.856 201.567C169.581 204.53 169.251 207.472 168.895 210.405C166.53 230.156 163.521 244.744 162.174 250.84C171.277 245.274 180.038 239.168 188.411 232.556C186.391 204.27 200.693 169.118 208.344 186.489C213.412 197.874 208.781 210.682 203.895 219.539C216.13 208.506 227.656 196.71 238.403 184.222C237.706 169.213 236.366 123.384 249.747 133.794C260.323 142.058 253.548 161.132 247.851 172.911C257.889 160.559 266.524 148.617 273.658 138.031C272.909 131.636 268.234 88.0002 279.297 97.8789C286.255 104.038 284.796 115.696 282.45 124.554C292.483 108.831 297.792 98.3814 297.792 98.3814C297.792 98.3814 298.831 46.3094 314.191 53.0266C329.551 59.7438 303.984 97.0073 303.984 97.0073C298.452 107.989 292.744 118.356 286.959 128.174C303.506 112.725 337.98 83.0907 337.496 102.297C336.914 124.314 292.641 135.067 281.305 137.459C271.954 152.564 261.768 167.137 250.795 181.11C270.948 170.424 336.762 137.18 329.19 162.61C320.303 192.525 243.034 190.551 243.034 190.551C230.462 205.655 216.837 219.851 202.262 233.033C220.925 225.023 272.487 205.119 271.789 229.575C271.054 259.467 190.232 243.44 190.232 243.44C161.781 266.833 141.692 276.072 141.692 276.072C135.749 269.392 144.324 260.919 144.324 260.919C147.044 259.576 149.758 258.168 152.427 256.715C159.126 235.34 163.472 213.298 165.386 190.98C160.869 187.724 117.279 155.859 137.031 148.396C157.794 140.594 166.357 178.472 166.399 178.61C166.943 170.417 167.272 162.392 167.44 154.645C160.307 145.33 131.93 107.208 150.267 111.45C161.767 114.108 165.803 124.538 167.104 133.306L166.431 109.763C166.431 109.763 126.921 85.1588 143.968 83.4844Z" fill="#201402"/>
</svg>
