<svg width="276" height="424" viewBox="0 0 276 424" fill="none" xmlns="http://www.w3.org/2000/svg">
<path fill-rule="evenodd" clip-rule="evenodd" d="M338.474 43.3973C378.675 46.2846 419.297 1.78615 454.784 20.896C489.67 39.6822 491.418 90.0341 497.72 129.152C502.845 160.962 491.176 191.292 487.39 223.288C483.482 256.317 499.752 297.939 475.104 320.268C449.763 343.226 406.38 312.413 374.729 325.352C336.849 340.838 320.704 393.21 280.33 399.897C235.972 407.243 187.124 392.069 153.739 361.951C119.119 330.717 98.6884 282.934 99.0036 236.308C99.3045 191.802 136.113 158.382 155.387 118.265C174.186 79.1347 170.726 19.8118 210.908 3.38085C253.01 -13.8355 293.104 40.1389 338.474 43.3973Z" fill="#F0CCA0"/>
<path d="M242.627 344.411C235.604 331.481 228.34 317.841 220.774 304.382C218.009 299.352 214.786 294.587 211.146 290.148C202.69 280.105 203.822 269.269 207.109 257.78C209.386 250.392 212.534 243.3 216.486 236.653C221.414 227.827 226.603 219.131 228.387 209.046C229.667 202.137 229.68 195.055 228.426 188.145C226.183 175.66 220.408 164.674 214.51 153.794C208.612 142.915 202.174 132.356 195.504 121.959C192.058 116.842 188.192 112.02 183.946 107.543C182.415 106.003 180.385 105.057 178.219 104.874C173.929 104.672 171.259 110.141 173.255 114.41C176.008 120.096 178.412 125.943 180.453 131.921C182.204 138.162 183.355 144.556 183.891 151.015C184.881 161.258 182.279 170.912 178.726 180.571C175.273 190.449 173.414 200.811 173.218 211.269C172.581 222.948 174.092 234.644 177.677 245.776C179.609 251.488 182.348 257.034 184.122 263.189C180.191 259.088 176.069 255.114 172.317 250.84C163.957 241.246 160.45 229.001 154.026 218.213C147.058 206.519 140.565 194.448 132.814 183.29C124.488 171.195 113.597 161.078 100.914 153.659C89.9387 147.462 78.4164 142.283 66.4921 138.188C64.5824 137.39 62.5014 137.087 60.4419 137.308C59.5569 137.525 58.7294 137.931 58.016 138.498C57.3027 139.065 56.7204 139.779 56.3093 140.592C56.0346 141.391 55.935 142.241 56.0177 143.082C56.1004 143.923 56.3632 144.737 56.7884 145.467C59.5888 148.995 62.5764 152.37 65.7384 155.579C71.7511 162.024 75.209 169.879 78.3882 177.909C81.7897 186.488 85.2712 195.02 88.8317 203.507C90.8876 209.125 93.3861 214.571 96.3035 219.794C102.307 229.771 110.263 238.437 119.697 245.274C130.729 253.052 143.411 256.609 155.938 260.333C167.969 263.889 177.282 271.426 187.29 278.377C186.423 278.408 185.556 278.321 184.714 278.117C168.915 272.582 152.002 270.966 135.431 273.408C126.254 274.516 117.039 275.384 108.009 277.228C95.9889 279.698 84.0343 282.601 72.2662 286.105C62.8645 288.899 53.7866 292.808 44.6147 296.366C42.2111 297.311 40.0092 299.102 40.4558 301.984C41.1051 303.592 42.1079 305.033 43.3903 306.202C43.6018 306.406 43.8515 306.566 44.1254 306.673C44.3992 306.78 44.6919 306.831 44.986 306.825C57.8093 306.791 69.0651 312.507 80.6831 316.674C87.1912 318.909 93.9152 320.461 100.746 321.306C108.717 322.335 116.753 322.783 124.789 322.645C131.228 322.209 137.642 321.451 144.006 320.373C155.885 318.966 165.294 312.367 175.004 306.138C181.267 302.107 188.046 298.69 194.636 295.223C196.378 294.329 198.384 294.093 200.286 294.558C202.188 295.023 203.858 296.157 204.988 297.753C211.436 308.16 218.07 318.516 223.837 329.28C232.314 344.922 240.046 360.964 252.592 374.115C257.876 379.526 264.223 383.787 271.235 386.633C273.665 387.658 276.185 388.459 278.632 389.455C279.781 390.093 281.133 390.26 282.403 389.919C283.674 389.579 284.762 388.758 285.437 387.631C285.705 386.997 285.839 386.314 285.832 385.626C285.824 384.937 285.676 384.258 285.395 383.629C285.114 383.001 284.706 382.437 284.198 381.973C283.689 381.508 283.09 381.153 282.438 380.929C278.82 379.397 275.131 377.883 271.511 376.627C266.696 374.84 265.227 371.881 267.394 367.247C271.063 359.334 275.588 351.716 278.584 343.533C282.441 333.691 285.264 323.477 287.008 313.054C288.96 298.921 288.5 284.483 289.952 270.258C290.984 261.026 292.725 251.886 295.158 242.919C297.355 234.374 300.525 226.094 303.44 217.707C304.595 214.345 306.103 211.089 307.364 207.749C307.833 206.753 307.899 205.615 307.55 204.572C307.2 203.529 306.461 202.66 305.487 202.147C304.506 201.583 303.369 201.348 302.244 201.478C301.119 201.609 300.066 202.097 299.24 202.871C293.579 207.594 288.651 213.13 284.618 219.298C279.985 226.044 275.018 232.578 270.207 239.222C261.902 250.033 255.15 261.947 250.143 274.62C245.584 286.077 242.906 298.191 242.212 310.496C241.973 322.044 242.49 333.514 242.627 344.411Z" fill="#243F33"/>
</svg>
